<?xml version="1.0" encoding="UTF-8" standalone="no"?><!DOCTYPE svg PUBLIC "-//W3C//DTD SVG 1.1//EN" "http://www.w3.org/Graphics/SVG/1.1/DTD/svg11.dtd"><svg width="100%" height="100%" viewBox="0 0 2835 1748" version="1.1" xmlns="http://www.w3.org/2000/svg" xmlns:xlink="http://www.w3.org/1999/xlink" xml:space="preserve" xmlns:serif="http://www.serif.com/" style="fill-rule:evenodd;clip-rule:evenodd;stroke-linecap:round;stroke-linejoin:round;stroke-miterlimit:1.5;"><rect id="Artboard1" x="0" y="0" width="2834.65" height="1747.97" style="fill:none;"/><path d="M432.735,189.81l0,668.154c0,21.862 8.685,42.828 24.143,58.286c15.459,15.459 36.425,24.143 58.287,24.143l918.69,0c21.862,0 42.828,8.685 58.286,24.143c15.459,15.459 24.143,36.425 24.143,58.287l0,220.82c0,45.525 36.905,82.429 82.43,82.429l519.278,0c21.861,0 42.828,8.685 58.286,24.143c15.459,15.459 24.143,36.425 24.143,58.287l0,172.739" style="fill:none;stroke:#8c8c8c;stroke-width:6px;"/><path d="M2200.42,239.131l0,262.015c0,21.862 -8.684,42.828 -24.143,58.286c-15.458,15.459 -36.425,24.143 -58.286,24.143l-918.691,0c-21.861,0 -42.828,8.685 -58.286,24.143c-15.459,15.459 -24.143,36.425 -24.143,58.287l-0,220.82c-0,45.524 -36.905,82.429 -82.43,82.429l-519.277,0c-21.862,0 -42.828,8.685 -58.287,24.143c-15.458,15.459 -24.143,36.425 -24.143,58.287l0,172.739" style="fill:none;stroke:#8c8c8c;stroke-width:6px;"/><path d="M995.828,311.508l0,243.019c0.001,21.862 -8.684,42.828 -24.143,58.287c-15.458,15.458 -36.424,24.143 -58.286,24.143l-480.664,-0" style="fill:none;stroke:#8c8c8c;stroke-width:6px;"/><path d="M2562.39,899.211l-361.974,-0" style="fill:none;stroke:#8c8c8c;stroke-width:6px;"/><path d="M995.828,1679.24l0,-243.019c0.001,-21.861 -8.684,-42.828 -24.143,-58.286c-15.458,-15.459 -36.424,-24.143 -58.286,-24.143l-480.664,-0" style="fill:none;stroke:#8c8c8c;stroke-width:6px;"/><path d="M673.898,99.871c0,-16.546 -13.433,-29.979 -29.979,-29.979l-422.367,-0c-16.547,-0 -29.98,13.433 -29.98,29.979l0,59.96c0,16.546 13.433,29.979 29.98,29.979l422.367,0c16.546,0 29.979,-13.433 29.979,-29.979l0,-59.96Z" style="fill:#ebebeb;stroke:#8c8c8c;stroke-width:6px;"/><path d="M673.898,281.529c0,-16.546 -13.433,-29.98 -29.979,-29.98l-422.367,0c-16.547,0 -29.98,13.434 -29.98,29.98l0,59.959c0,16.546 13.433,29.98 29.98,29.98l422.367,-0c16.546,-0 29.979,-13.434 29.979,-29.98l0,-59.959Z" style="fill:#ebebeb;stroke:#8c8c8c;stroke-width:6px;"/><path d="M1237.53,281.529c-0,-16.546 -13.433,-29.98 -29.98,-29.98l-422.366,0c-16.547,0 -29.98,13.434 -29.98,29.98l-0,59.959c-0,16.546 13.433,29.98 29.98,29.98l422.366,-0c16.547,-0 29.98,-13.434 29.98,-29.98l-0,-59.959Z" style="fill:#ebebeb;stroke:#8c8c8c;stroke-width:6px;"/><path d="M1237.53,1630.21c-0,-16.546 -13.433,-29.979 -29.98,-29.979l-422.366,-0c-16.547,-0 -29.98,13.433 -29.98,29.979l-0,59.96c-0,16.546 13.433,29.979 29.98,29.979l422.366,0c16.547,0 29.98,-13.433 29.98,-29.979l-0,-59.96Z" style="fill:#ebebeb;stroke:#8c8c8c;stroke-width:6px;"/><path d="M1754.22,1094.52c-0,-16.546 -13.434,-29.979 -29.98,-29.979l-422.367,-0c-16.546,-0 -29.979,13.433 -29.979,29.979l-0,59.96c-0,16.546 13.433,29.979 29.979,29.979l422.367,0c16.546,0 29.98,-13.433 29.98,-29.979l-0,-59.96Z" style="fill:#ebebeb;stroke:#8c8c8c;stroke-width:6px;"/><path d="M1237.53,910.414c-0,-16.546 -13.433,-29.98 -29.98,-29.98l-422.366,0c-16.547,0 -29.98,13.434 -29.98,29.98l-0,59.959c-0,16.546 13.433,29.98 29.98,29.98l422.366,-0c16.547,-0 29.98,-13.434 29.98,-29.98l-0,-59.959Z" style="fill:#ebebeb;stroke:#8c8c8c;stroke-width:6px;"/><path d="M583.065,687.067c27.656,-27.657 27.656,-72.564 -0,-100.22l-100.22,-100.22c-27.656,-27.656 -72.563,-27.656 -100.22,-0l-100.22,100.22c-27.656,27.656 -27.656,72.563 0,100.22l100.22,100.22c27.657,27.656 72.564,27.656 100.22,-0l100.22,-100.22Z" style="fill:#ebebeb;stroke:#8c8c8c;stroke-width:6px;"/><path d="M583.065,1405.64c27.656,-27.656 27.656,-72.563 -0,-100.22l-100.22,-100.22c-27.656,-27.656 -72.563,-27.656 -100.22,0l-100.22,100.22c-27.656,27.657 -27.656,72.564 0,100.22l100.22,100.22c27.657,27.656 72.564,27.656 100.22,0l100.22,-100.22Z" style="fill:#ebebeb;stroke:#8c8c8c;stroke-width:6px;"/><circle cx="2200.42" cy="1581.24" r="138.907" style="fill:#ebebeb;stroke:#8c8c8c;stroke-width:6px;"/><circle cx="2200.42" cy="899.211" r="138.907" style="fill:#ebebeb;stroke:#8c8c8c;stroke-width:6px;"/><circle cx="2562.39" cy="899.211" r="138.907" style="fill:#ebebeb;stroke:#8c8c8c;stroke-width:6px;"/><circle cx="2200.42" cy="239.131" r="138.907" style="fill:#ebebeb;stroke:#8c8c8c;stroke-width:6px;"/></svg>